<svg width="37" height="40" xmlns="http://www.w3.org/2000/svg">
 <g>
  <title>U</title>
  <rect x="-1" y="-1" width="39" height="42" id="U" fill="none"/>
 </g>

 <g>
  <title>L1</title>
  <path fill-rule="evenodd" clip-rule="evenodd" d="m36.5562,4.33275c0,-2.39249 -1.9398,-4.33251 -4.3324,-4.33251l-27.89137,0c-2.39254,0 -4.33243,1.94002 -4.33243,4.33251l0,17.38905c0,10.0947 8.1832,18.2782 18.2779,18.2782c10.0952,0 18.2783,-8.1835 18.2783,-18.2782c-0.0008,-6.9212 0.0013,-10.4676 0,-17.38905z" fill="#FFC709" id="svg_14" transform="rotate(-180, 18.2773, 20)"/>
  <path fill-rule="evenodd" clip-rule="evenodd" d="m23.18,26.5552c0,-0.9422 -0.7777,-1.7036 -1.7204,-1.7036c-0.9432,0 -1.7208,0.7614 -1.7208,1.7036c0,0.9432 0.7776,1.7204 1.7208,1.7204c0.9427,0 1.7204,-0.7772 1.7204,-1.7204zm-6.1046,0c0,-0.9422 -0.777,-1.7036 -1.7368,-1.7036c-0.943,0 -1.7038,0.7614 -1.7038,1.7036c0,0.9432 0.7608,1.7204 1.7038,1.7204c0.9598,0 1.7368,-0.7772 1.7368,-1.7204z" fill="black" id="svg_15" transform="rotate(-180, 18.4082, 26.5645)"/>
 </g>
</svg>